<svg width="50" height="50" viewBox="0 0 50 50" fill="none" xmlns="http://www.w3.org/2000/svg">
<g clip-path="url(#clip0)">
<path d="M20.3125 3.125C19.0693 3.125 17.877 3.61886 16.9979 4.49794C16.1189 5.37701 15.625 6.5693 15.625 7.8125V9.375H4.6875C3.4443 9.375 2.25201 9.86886 1.37294 10.7479C0.49386 11.627 0 12.8193 0 14.0625L0 18.3875L23.7937 24.7313C24.5841 24.9417 25.4159 24.9417 26.2062 24.7313L50 18.3875V14.0625C50 12.8193 49.5061 11.627 48.6271 10.7479C47.748 9.86886 46.5557 9.375 45.3125 9.375H34.375V7.8125C34.375 6.5693 33.8811 5.37701 33.0021 4.49794C32.123 3.61886 30.9307 3.125 29.6875 3.125H20.3125ZM20.3125 6.25H29.6875C30.1019 6.25 30.4993 6.41462 30.7924 6.70765C31.0854 7.00067 31.25 7.3981 31.25 7.8125V9.375H18.75V7.8125C18.75 7.3981 18.9146 7.00067 19.2076 6.70765C19.5007 6.41462 19.8981 6.25 20.3125 6.25Z" fill="#FAFAFA"/>
<path d="M0 39.0625C0 40.3057 0.49386 41.498 1.37294 42.3771C2.25201 43.2561 3.4443 43.75 4.6875 43.75H45.3125C46.5557 43.75 47.748 43.2561 48.6271 42.3771C49.5061 41.498 50 40.3057 50 39.0625V21.4062L25.4031 27.9594C25.139 28.0299 24.861 28.0299 24.5969 27.9594L0 21.4062V39.0625Z" fill="#FAFAFA"/>
</g>
<defs>
<clipPath id="clip0">
<rect width="50" height="50" fill="white"/>
</clipPath>
</defs>
</svg>
