<svg width="50" height="50" viewBox="0 0 50 50" fill="none" xmlns="http://www.w3.org/2000/svg">
<path d="M8.33323 6.25C7.41604 6.25004 6.52449 6.55271 5.79684 7.11108C5.0692 7.66944 4.54612 8.4523 4.30873 9.33824C4.07134 10.2242 4.1329 11.1637 4.48388 12.0111C4.83485 12.8585 5.45561 13.5664 6.2499 14.025V42.1875C6.2499 43.05 6.9499 43.75 7.8124 43.75H12.4999V32.8125C12.4999 32.3981 12.6645 32.0007 12.9575 31.7076C13.2506 31.4146 13.648 31.25 14.0624 31.25H22.3957C22.8101 31.25 23.2076 31.4146 23.5006 31.7076C23.7936 32.0007 23.9582 32.3981 23.9582 32.8125V43.75H42.1874C42.6018 43.75 42.9992 43.5854 43.2923 43.2924C43.5853 42.9993 43.7499 42.6019 43.7499 42.1875V14.025C44.5442 13.5664 45.165 12.8585 45.5159 12.0111C45.8669 11.1637 45.9285 10.2242 45.6911 9.33824C45.4537 8.4523 44.9306 7.66944 44.203 7.11108C43.4753 6.55271 42.5838 6.25004 41.6666 6.25H8.33323ZM7.29157 10.4167C7.29157 10.1404 7.40131 9.87545 7.59666 9.6801C7.79201 9.48475 8.05697 9.375 8.33323 9.375H41.6666C41.9428 9.375 42.2078 9.48475 42.4031 9.6801C42.5985 9.87545 42.7082 10.1404 42.7082 10.4167C42.7082 10.6929 42.5985 10.9579 42.4031 11.1532C42.2078 11.3486 41.9428 11.4583 41.6666 11.4583H8.33323C8.05697 11.4583 7.79201 11.3486 7.59666 11.1532C7.40131 10.9579 7.29157 10.6929 7.29157 10.4167ZM14.0624 16.6667H35.9374C36.3518 16.6667 36.7492 16.8313 37.0423 17.1243C37.3353 17.4173 37.4999 17.8148 37.4999 18.2292V25.5208C37.4999 25.9352 37.3353 26.3327 37.0423 26.6257C36.7492 26.9187 36.3518 27.0833 35.9374 27.0833H14.0624C13.648 27.0833 13.2506 26.9187 12.9575 26.6257C12.6645 26.3327 12.4999 25.9352 12.4999 25.5208V18.2292C12.4999 17.8148 12.6645 17.4173 12.9575 17.1243C13.2506 16.8313 13.648 16.6667 14.0624 16.6667ZM30.7291 31.25H35.9374C36.3518 31.25 36.7492 31.4146 37.0423 31.7076C37.3353 32.0007 37.4999 32.3981 37.4999 32.8125V38.0208C37.4999 38.4352 37.3353 38.8327 37.0423 39.1257C36.7492 39.4187 36.3518 39.5833 35.9374 39.5833H30.7291C30.3147 39.5833 29.9172 39.4187 29.6242 39.1257C29.3312 38.8327 29.1666 38.4352 29.1666 38.0208V32.8125C29.1666 32.3981 29.3312 32.0007 29.6242 31.7076C29.9172 31.4146 30.3147 31.25 30.7291 31.25Z" fill="#FAFAFA"/>
</svg>
