<svg width="50" height="45" viewBox="0 0 50 45" fill="none" xmlns="http://www.w3.org/2000/svg">
<g clip-path="url(#clip0)">
<path d="M24.9993 0C18.9592 0 14.0632 4.89608 14.0632 10.9361C14.0632 15.8192 21.2107 24.7191 23.9491 27.9496C24.5037 28.604 25.4957 28.604 26.0495 27.9496C28.7878 24.7191 35.9354 15.8192 35.9354 10.9361C35.9354 4.89608 31.0393 0 24.9993 0ZM24.9993 14.5815C22.9856 14.5815 21.3539 12.9497 21.3539 10.9361C21.3539 8.92248 22.9856 7.29074 24.9993 7.29074C27.0129 7.29074 28.6446 8.92248 28.6446 10.9361C28.6446 12.9497 27.0129 14.5815 24.9993 14.5815ZM1.74875 18.7433C1.23334 18.9494 0.791517 19.3053 0.480254 19.7649C0.16899 20.2245 0.00256485 20.7668 0.00244141 21.3219L0.00244141 43.0484C0.00244141 44.0309 0.994503 44.7027 1.90671 44.3381L13.8896 38.8839V18.6539C13.1223 17.2669 12.4948 15.9164 12.0452 14.6249L1.74875 18.7433ZM24.9993 31.2174C23.7781 31.2174 22.6228 30.681 21.8304 29.7454C20.124 27.7317 18.3091 25.4386 16.667 23.0865V38.8831L33.3315 44.4379V23.0873C31.6894 25.4386 29.8754 27.7326 28.1681 29.7462C27.3757 30.681 26.2205 31.2174 24.9993 31.2174ZM48.0918 13.9878L36.109 19.442V44.4388L48.2498 39.5826C48.7653 39.3766 49.2071 39.0208 49.5184 38.5611C49.8297 38.1015 49.9961 37.5591 49.9961 37.004V15.2776C49.9961 14.2951 49.004 13.6233 48.0918 13.9878Z" fill="#FAFAFA"/>
</g>
<defs>
<clipPath id="clip0">
<rect width="50" height="44.4388" fill="white"/>
</clipPath>
</defs>
</svg>
