<svg width="50" height="50" viewBox="0 0 51 44" fill="none" xmlns="http://www.w3.org/2000/svg">
<path d="M2 29.3975V14.6C2 13.165 3.12 12 4.5 12H13.465C13.7958 11.9989 14.123 11.9307 14.4268 11.7996C14.7305 11.6686 15.0046 11.4774 15.2325 11.2375L22.7325 2.76753C24.3075 1.12753 27 2.29003 27 4.60753V39.3925C27 41.7275 24.275 42.88 22.71 41.2075L15.235 32.785C15.0065 32.5383 14.7296 32.3413 14.4217 32.2063C14.1137 32.0712 13.7813 32.001 13.445 32H4.5C3.12 32 2 30.835 2 29.3975Z" fill="#FAFAFA" stroke="#FAFAFA" stroke-width="2.91667" stroke-linecap="round" stroke-linejoin="round"/>
<path d="M33.6153 13.615C33.7314 13.4986 33.8693 13.4063 34.0212 13.3433C34.1731 13.2802 34.3359 13.2478 34.5003 13.2478C34.6647 13.2478 34.8275 13.2802 34.9794 13.3433C35.1312 13.4063 35.2692 13.4986 35.3853 13.615L42.0003 20.2325L48.6153 13.615C48.7315 13.4988 48.8695 13.4066 49.0213 13.3437C49.1732 13.2808 49.3359 13.2485 49.5003 13.2485C49.6646 13.2485 49.8274 13.2808 49.9792 13.3437C50.1311 13.4066 50.2691 13.4988 50.3853 13.615C50.5015 13.7313 50.5937 13.8692 50.6566 14.0211C50.7195 14.1729 50.7519 14.3357 50.7519 14.5C50.7519 14.6644 50.7195 14.8271 50.6566 14.979C50.5937 15.1308 50.5015 15.2688 50.3853 15.385L43.7678 22L50.3853 28.615C50.5015 28.7313 50.5937 28.8692 50.6566 29.0211C50.7195 29.1729 50.7519 29.3357 50.7519 29.5C50.7519 29.6644 50.7195 29.8271 50.6566 29.979C50.5937 30.1308 50.5015 30.2688 50.3853 30.385C50.2691 30.5013 50.1311 30.5934 49.9792 30.6563C49.8274 30.7192 49.6646 30.7516 49.5003 30.7516C49.3359 30.7516 49.1732 30.7192 49.0213 30.6563C48.8695 30.5934 48.7315 30.5013 48.6153 30.385L42.0003 23.7675L35.3853 30.385C35.2691 30.5013 35.1311 30.5934 34.9792 30.6563C34.8274 30.7192 34.6646 30.7516 34.5003 30.7516C34.3359 30.7516 34.1732 30.7192 34.0213 30.6563C33.8695 30.5934 33.7315 30.5013 33.6153 30.385C33.4991 30.2688 33.4069 30.1308 33.344 29.979C33.2811 29.8271 33.2487 29.6644 33.2487 29.5C33.2487 29.3357 33.2811 29.1729 33.344 29.0211C33.4069 28.8692 33.4991 28.7313 33.6153 28.615L40.2328 22L33.6153 15.385C33.4989 15.2689 33.4065 15.131 33.3435 14.9791C33.2805 14.8273 33.248 14.6645 33.248 14.5C33.248 14.3356 33.2805 14.1728 33.3435 14.021C33.4065 13.8691 33.4989 13.7312 33.6153 13.615Z" fill="#FAFAFA"/>
</svg>
