<svg width="100" height="100" viewBox="0 0 100 100" fill="none" xmlns="http://www.w3.org/2000/svg">
<path d="M34.9167 43.7499C34.9167 49.2267 30.4768 53.6666 25 53.6666C19.5232 53.6666 15.0833 49.2267 15.0833 43.7499C15.0833 38.2731 19.5232 33.8333 25 33.8333C30.4768 33.8333 34.9167 38.2731 34.9167 43.7499Z" stroke="#081C49"/>
<path d="M45.8333 79.1668H4.16666V72.2918C4.16666 72.2918 9.99999 59.1667 25 59.1667C26.9231 59.1881 30.9231 59.6923 31.5385 61.5385" stroke="#081C49" stroke-width="5"/>
<path d="M54.1667 79.1667H95.8333V72.2917C95.8333 72.2917 90 59.1667 75 59.1667C72.6923 59.0598 67.8462 59.3846 66.9231 61.5384" stroke="#081C49" stroke-width="5"/>
<path d="M59.5 35.4167C59.5 40.6635 55.2467 44.9167 50 44.9167C44.7533 44.9167 40.5 40.6635 40.5 35.4167C40.5 30.17 44.7533 25.9167 50 25.9167C55.2467 25.9167 59.5 30.17 59.5 35.4167Z" stroke="#081C49" stroke-width="6"/>
<path d="M75 71.0417C75 71.0417 68.125 55.4167 50 55.4167C31.875 55.4167 25 71.0417 25 71.0417V79.1668H75V71.0417Z" stroke="#081C49" stroke-width="5"/>
<path d="M32.4167 43.7499C32.4167 47.846 29.0961 51.1666 25 51.1666C20.9039 51.1666 17.5833 47.846 17.5833 43.7499C17.5833 39.6538 20.9039 36.3333 25 36.3333C29.0961 36.3333 32.4167 39.6538 32.4167 43.7499Z" stroke="#081C49" stroke-width="6"/>
<path d="M82.4487 43.7499C82.4487 47.846 79.1282 51.1666 75.0321 51.1666C70.9359 51.1666 67.6154 47.846 67.6154 43.7499C67.6154 39.6538 70.9359 36.3333 75.0321 36.3333C79.1282 36.3333 82.4487 39.6538 82.4487 43.7499Z" stroke="#081C49" stroke-width="6"/>
</svg>
