<svg width="68" height="61" viewBox="0 0 68 61" fill="none" xmlns="http://www.w3.org/2000/svg">
<path d="M16.233 17.2668C15.57 17.2668 14.9341 17.5302 14.4653 17.9991C13.9964 18.4679 13.733 19.1038 13.733 19.7668V31.4335C13.733 32.8135 14.853 33.9335 16.233 33.9335H51.233C51.8961 33.9335 52.532 33.6701 53.0008 33.2013C53.4697 32.7324 53.733 32.0966 53.733 31.4335V19.7668C53.733 19.1038 53.4697 18.4679 53.0008 17.9991C52.532 17.5302 51.8961 17.2668 51.233 17.2668H16.233ZM18.733 28.9335V22.2668H48.733V28.9335H18.733Z" fill="#081C49"/>
<path d="M39.5664 37.2668C38.9033 37.2668 38.2674 37.5302 37.7986 37.9991C37.3298 38.4679 37.0664 39.1038 37.0664 39.7668V48.1002C37.0664 49.4802 38.1864 50.6002 39.5664 50.6002H51.233C51.8961 50.6002 52.532 50.3368 53.0008 49.868C53.4697 49.3991 53.733 48.7632 53.733 48.1002V39.7668C53.733 39.1038 53.4697 38.4679 53.0008 37.9991C52.532 37.5302 51.8961 37.2668 51.233 37.2668H39.5664ZM42.0664 45.6002V42.2668H48.733V45.6002H42.0664Z" fill="#081C49"/>
<path d="M7.06638 0.600098C5.59887 0.600162 4.17239 1.08444 3.00815 1.97782C1.84392 2.87121 1.00699 4.12378 0.627169 5.54128C0.247345 6.95878 0.345849 8.46201 0.907403 9.81782C1.46896 11.1736 2.46218 12.3063 3.73304 13.0401V58.1001C3.73304 59.4801 4.85304 60.6001 6.23304 60.6001H61.233C61.8961 60.6001 62.532 60.3367 63.0008 59.8679C63.4696 59.399 63.733 58.7631 63.733 58.1001V13.0401C65.0039 12.3063 65.9971 11.1736 66.5587 9.81782C67.1202 8.46201 67.2187 6.95878 66.8389 5.54128C66.4591 4.12378 65.6222 2.87121 64.4579 1.97782C63.2937 1.08444 61.8672 0.600162 60.3997 0.600098H7.06638ZM58.733 13.9334V55.6001H32.0664V39.7668C32.0664 39.1037 31.803 38.4678 31.3341 37.999C30.8653 37.5302 30.2294 37.2668 29.5664 37.2668H16.233C15.57 37.2668 14.9341 37.5302 14.4653 37.999C13.9964 38.4678 13.733 39.1037 13.733 39.7668V55.6001H8.73304V13.9334H58.733ZM5.39971 7.26676C5.39971 6.82474 5.5753 6.40081 5.88786 6.08825C6.20043 5.77569 6.62435 5.6001 7.06638 5.6001H60.3997C60.8417 5.6001 61.2657 5.77569 61.5782 6.08825C61.8908 6.40081 62.0664 6.82474 62.0664 7.26676C62.0664 7.70879 61.8908 8.13271 61.5782 8.44528C61.2657 8.75784 60.8417 8.93343 60.3997 8.93343H7.06638C6.62435 8.93343 6.20043 8.75784 5.88786 8.44528C5.5753 8.13271 5.39971 7.70879 5.39971 7.26676ZM27.0664 55.6001H18.733V42.2668H27.0664V55.6001Z" fill="#081C49"/>
</svg>
