<svg width="80" height="80" viewBox="0 0 80 80" fill="none" xmlns="http://www.w3.org/2000/svg">
<path d="M24 29.3334L26.1333 30.9334C26.4305 30.5372 26.6114 30.0661 26.6559 29.5728C26.7004 29.0796 26.6066 28.5837 26.3851 28.1408C26.1637 27.6978 25.8232 27.3253 25.4019 27.065C24.9807 26.8046 24.4952 26.6667 24 26.6667V29.3334ZM16 40L13.8667 38.4C13.5695 38.7962 13.3886 39.2673 13.3441 39.7605C13.2996 40.2538 13.3934 40.7496 13.6149 41.1926C13.8363 41.6355 14.1768 42.0081 14.5981 42.2684C15.0193 42.5288 15.5048 42.6667 16 42.6667V40ZM67.9253 15.2214L69.9627 16.944L67.9253 15.2214ZM10.6667 32H24V26.6667H10.6667V32ZM21.8667 27.7334L13.8667 38.4L18.1333 41.6L26.1333 30.9334L21.8667 27.7334ZM16 42.6667H18.6667V37.3334H16V42.6667ZM18.6667 48H10.6667V53.3334H18.6667V48ZM21.3333 45.3334C21.3333 46.0406 21.0524 46.7189 20.5523 47.219C20.0522 47.7191 19.3739 48 18.6667 48V53.3334C20.7884 53.3334 22.8232 52.4905 24.3235 50.9902C25.8238 49.4899 26.6667 47.4551 26.6667 45.3334H21.3333ZM18.6667 42.6667C19.3739 42.6667 20.0522 42.9476 20.5523 43.4477C21.0524 43.9478 21.3333 44.6261 21.3333 45.3334H26.6667C26.6667 43.2116 25.8238 41.1768 24.3235 39.6765C22.8232 38.1762 20.7884 37.3334 18.6667 37.3334V42.6667ZM42.6667 26.6667H40V32H42.6667V26.6667ZM32 34.6667V40H37.3333V34.6667H32ZM32 40V45.3334H37.3333V40H32ZM40 37.3334H34.6667V42.6667H40V37.3334ZM48 45.3334C48 43.2116 47.1571 41.1768 45.6569 39.6765C44.1566 38.1762 42.1217 37.3334 40 37.3334V42.6667C40.7072 42.6667 41.3855 42.9476 41.8856 43.4477C42.3857 43.9478 42.6667 44.6261 42.6667 45.3334H48ZM40 53.3334C42.1217 53.3334 44.1566 52.4905 45.6569 50.9902C47.1571 49.4899 48 47.4551 48 45.3334H42.6667C42.6667 46.0406 42.3857 46.7189 41.8856 47.219C41.3855 47.7191 40.7072 48 40 48V53.3334ZM40 48C39.2928 48 38.6145 47.7191 38.1144 47.219C37.6143 46.7189 37.3333 46.0406 37.3333 45.3334H32C32 47.4551 32.8429 49.4899 34.3431 50.9902C35.8434 52.4905 37.8783 53.3334 40 53.3334V48ZM40 26.6667C37.8783 26.6667 35.8434 27.5095 34.3431 29.0098C32.8429 30.5101 32 32.545 32 34.6667H37.3333C37.3333 33.9594 37.6143 33.2812 38.1144 32.7811C38.6145 32.281 39.2928 32 40 32V26.6667ZM64 34.6667V45.3334H69.3333V34.6667H64ZM58.6667 45.3334V34.6667H53.3333V45.3334H58.6667ZM61.3333 48C60.6261 48 59.9478 47.7191 59.4477 47.219C58.9476 46.7189 58.6667 46.0406 58.6667 45.3334H53.3333C53.3333 47.4551 54.1762 49.4899 55.6765 50.9902C57.1768 52.4905 59.2116 53.3334 61.3333 53.3334V48ZM64 45.3334C64 46.0406 63.719 46.7189 63.219 47.219C62.7189 47.7191 62.0406 48 61.3333 48V53.3334C63.4551 53.3334 65.4899 52.4905 66.9902 50.9902C68.4905 49.4899 69.3333 47.4551 69.3333 45.3334H64ZM61.3333 32C62.0406 32 62.7189 32.281 63.219 32.7811C63.719 33.2812 64 33.9594 64 34.6667H69.3333C69.3333 32.545 68.4905 30.5101 66.9902 29.0098C65.4899 27.5095 63.4551 26.6667 61.3333 26.6667V32ZM61.3333 26.6667C59.2116 26.6667 57.1768 27.5095 55.6765 29.0098C54.1762 30.5101 53.3333 32.545 53.3333 34.6667H58.6667C58.6667 33.9594 58.9476 33.2812 59.4477 32.7811C59.9478 32.281 60.6261 32 61.3333 32V26.6667ZM40 74.6667C30.8058 74.6667 21.9882 71.0143 15.487 64.5131C8.9857 58.0118 5.33333 49.1942 5.33333 40H0C0 50.6087 4.21427 60.7828 11.7157 68.2843C19.2172 75.7858 29.3913 80 40 80V74.6667ZM74.6667 40C74.6667 44.5525 73.77 49.0604 72.0278 53.2664C70.2857 57.4723 67.7321 61.294 64.513 64.5131C61.2939 67.7322 57.4723 70.2857 53.2664 72.0278C49.0604 73.77 44.5525 74.6667 40 74.6667V80C50.6087 80 60.7828 75.7858 68.2843 68.2843C75.7857 60.7828 80 50.6087 80 40H74.6667ZM40 2.21005e-05C29.3913 2.21005e-05 19.2172 4.2143 11.7157 11.7158C4.21427 19.2172 0 29.3914 0 40H5.33333C5.33333 30.8059 8.9857 21.9882 15.487 15.487C21.9882 8.98573 30.8058 5.33336 40 5.33336V2.21005e-05ZM72 16C72.7072 16 73.3855 16.281 73.8856 16.7811C74.3857 17.2812 74.6667 17.9594 74.6667 18.6667H80C80 16.545 79.1571 14.5101 77.6569 13.0098C76.1566 11.5095 74.1217 10.6667 72 10.6667V16ZM72 21.3334C71.2928 21.3334 70.6145 21.0524 70.1144 20.5523C69.6143 20.0522 69.3333 19.3739 69.3333 18.6667H64C64 20.7884 64.8429 22.8233 66.3431 24.3235C67.8434 25.8238 69.8783 26.6667 72 26.6667V21.3334ZM69.3333 18.6667C69.3333 18.0107 69.568 17.4134 69.9627 16.944L65.8933 13.4987C64.7147 14.8907 64 16.6987 64 18.6667H69.3333ZM69.9627 16.944C70.2127 16.6474 70.5247 16.4092 70.8767 16.2461C71.2286 16.083 71.6121 15.999 72 16V10.6667C69.5467 10.6667 67.3547 11.7707 65.8933 13.4987L69.9627 16.944ZM40 5.33336C50.3147 5.33336 59.5787 9.83469 65.9307 16.992L69.92 13.4507C66.1706 9.21672 61.5641 5.82799 56.4059 3.50909C51.2477 1.19018 45.6555 -0.00592935 40 2.21005e-05V5.33336ZM71.2213 24.9067C73.4293 29.472 74.6667 34.5867 74.6667 40H80C80 33.76 78.5707 27.856 76.0213 22.5867L71.2213 24.912V24.9067ZM74.6667 18.6667C74.6674 19.2328 74.488 19.7845 74.1543 20.2419C73.8206 20.6993 73.35 21.0386 72.8107 21.2107L74.432 26.288C76.0483 25.7722 77.4588 24.756 78.4597 23.386C79.4606 22.016 80 20.3633 80 18.6667H74.6667ZM72.8107 21.2107C72.5484 21.2931 72.2749 21.3345 72 21.3334V26.6667C72.8251 26.6684 73.6454 26.5425 74.432 26.2934L72.8107 21.2107Z" fill="#081C49"/>
</svg>
