<svg width="80" height="80" viewBox="0 0 80 80" fill="none" xmlns="http://www.w3.org/2000/svg">
<path d="M71.3 56.665V56.6667C71.3 59.2418 69.2157 61.3333 66.6667 61.3333H53.3333H51.3333V63.3333V66.6667C51.3333 67.3954 50.7288 68 50 68H30C29.2712 68 28.6667 67.3954 28.6667 66.6667V63.3333V61.3333H26.6667H13.3333C10.7712 61.3333 8.66666 59.2288 8.66666 56.6667V16.6667C8.66666 14.1046 10.7712 12 13.3333 12H66.6667C69.2282 12 71.3324 14.1037 71.3333 16.665C71.3333 16.6656 71.3333 16.6661 71.3333 16.6667L71.3 56.665Z" stroke="#081C49" stroke-width="4"/>
<path d="M35.7179 46.6848L35.7178 46.6847L35.7082 46.691C34.8511 47.2494 33.6667 46.6272 33.6667 45.5667V27.7667C33.6667 26.7063 34.8511 26.084 35.7082 26.6425L35.7082 26.6425L35.7179 26.6487L49.5481 35.5467C49.5486 35.547 49.549 35.5473 49.5495 35.5476C49.736 35.6684 49.8894 35.8339 49.9957 36.0291C50.1022 36.2247 50.158 36.444 50.158 36.6667C50.158 36.8895 50.1022 37.1087 49.9957 37.3044C49.8894 37.4996 49.736 37.6651 49.5495 37.7859C49.549 37.7862 49.5486 37.7864 49.5481 37.7867L35.7179 46.6848Z" stroke="#081C49" stroke-width="4"/>
<rect x="15.2" y="54.3999" width="52" height="3.2" rx="1.6" fill="#081C49"/>
</svg>
