<svg width="50" height="50" viewBox="0 0 50 50" fill="none" xmlns="http://www.w3.org/2000/svg">
<path d="M24.9999 8.33331C27.2101 8.33331 29.3297 9.21129 30.8925 10.7741C32.4553 12.3369 33.3332 14.4565 33.3332 16.6666C33.3332 18.8768 32.4553 20.9964 30.8925 22.5592C29.3297 24.122 27.2101 25 24.9999 25C22.7898 25 20.6702 24.122 19.1074 22.5592C17.5446 20.9964 16.6666 18.8768 16.6666 16.6666C16.6666 14.4565 17.5446 12.3369 19.1074 10.7741C20.6702 9.21129 22.7898 8.33331 24.9999 8.33331ZM24.9999 29.1666C34.2082 29.1666 41.6666 32.8958 41.6666 37.5V41.6666H8.33325V37.5C8.33325 32.8958 15.7916 29.1666 24.9999 29.1666Z" fill="white"/>
</svg>
