<svg width="63" height="63" viewBox="0 0 63 63" fill="none" xmlns="http://www.w3.org/2000/svg">
<path d="M56.9973 27.51L51.1348 25.76C50.7294 24.3448 50.172 22.9777 49.4723 21.6825L52.3423 16.31C52.45 16.1072 52.4894 15.8751 52.4547 15.6481C52.42 15.4212 52.3131 15.2114 52.1498 15.05L47.9673 10.85C47.8059 10.6867 47.5961 10.5798 47.3692 10.5451C47.1422 10.5104 46.9101 10.5498 46.7073 10.6575L41.3698 13.51C40.0618 12.7762 38.6768 12.1893 37.2398 11.76L35.4898 5.96752C35.4158 5.75405 35.2759 5.56957 35.0904 5.44064C34.9048 5.3117 34.6832 5.24496 34.4573 5.25002H28.5423C28.315 5.25108 28.094 5.32463 27.9115 5.45998C27.7289 5.59532 27.5943 5.78539 27.5273 6.00252L25.7773 11.7775C24.3283 12.2045 22.9314 12.7914 21.6123 13.5275L16.3623 10.6925C16.1595 10.5848 15.9274 10.5454 15.7004 10.5801C15.4734 10.6148 15.2637 10.7217 15.1023 10.885L10.8498 15.0325C10.6864 15.1939 10.5795 15.4037 10.5448 15.6306C10.5101 15.8576 10.5496 16.0897 10.6573 16.2925L13.4923 21.5425C12.7574 22.8561 12.1704 24.2471 11.7423 25.69L5.94977 27.44C5.73263 27.5071 5.54256 27.6417 5.40722 27.8242C5.27188 28.0068 5.19832 28.2278 5.19727 28.455V34.37C5.19832 34.5973 5.27188 34.8183 5.40722 35.0008C5.54256 35.1834 5.73263 35.318 5.94977 35.385L11.7773 37.135C12.2101 38.554 12.7969 39.9213 13.5273 41.2125L10.6573 46.7075C10.5496 46.9103 10.5101 47.1424 10.5448 47.3694C10.5795 47.5964 10.6864 47.8061 10.8498 47.9675L15.0323 52.15C15.1937 52.3133 15.4034 52.4203 15.6304 52.455C15.8574 52.4896 16.0895 52.4502 16.2923 52.3425L21.6998 49.455C22.979 50.1453 24.3283 50.6967 25.7248 51.1L27.4748 56.9975C27.5418 57.2147 27.6764 57.4047 27.859 57.5401C28.0415 57.6754 28.2625 57.749 28.4898 57.75H34.4048C34.632 57.749 34.853 57.6754 35.0356 57.5401C35.2181 57.4047 35.3527 57.2147 35.4198 56.9975L37.1698 51.0825C38.5543 50.6772 39.8918 50.1257 41.1598 49.4375L46.6023 52.3425C46.8051 52.4502 47.0372 52.4896 47.2642 52.455C47.4911 52.4203 47.7009 52.3133 47.8623 52.15L52.0448 47.9675C52.2081 47.8061 52.315 47.5964 52.3497 47.3694C52.3844 47.1424 52.345 46.9103 52.2373 46.7075L49.3323 41.2825C50.0276 40.0097 50.585 38.6663 50.9948 37.275L56.8923 35.525C57.1094 35.458 57.2995 35.3234 57.4348 35.1408C57.5702 34.9583 57.6437 34.7373 57.6448 34.51V28.5425C57.6551 28.3249 57.5986 28.1094 57.4829 27.9248C57.3671 27.7402 57.1977 27.5955 56.9973 27.51ZM31.4998 41.125C29.5961 41.125 27.7352 40.5605 26.1524 39.5029C24.5696 38.4453 23.3359 36.9421 22.6074 35.1833C21.8789 33.4246 21.6883 31.4893 22.0597 29.6223C22.4311 27.7552 23.3478 26.0402 24.6939 24.6941C26.0399 23.348 27.755 22.4313 29.622 22.06C31.4891 21.6886 33.4244 21.8792 35.1831 22.6077C36.9418 23.3362 38.4451 24.5698 39.5027 26.1527C40.5603 27.7355 41.1248 29.5964 41.1248 31.5C41.1248 34.0527 40.1107 36.5009 38.3057 38.3059C36.5006 40.111 34.0525 41.125 31.4998 41.125Z" fill="#FAFAFA"/>
</svg>
