<svg width="60" height="60" viewBox="0 0 60 60" fill="none" xmlns="http://www.w3.org/2000/svg">
<path d="M40 21.25C43.3325 25.695 43.3325 34.305 40 38.75" stroke="#FAFAFA" stroke-width="2.91667" stroke-linecap="round" stroke-linejoin="round"/>
<path d="M47.5 12.5C57.47 22.02 57.53 38.0425 47.5 47.5" stroke="#FAFAFA" stroke-width="2.91667" stroke-linecap="round" stroke-linejoin="round"/>
<path d="M5 37.3975V22.6C5 21.165 6.12 20 7.5 20H16.465C16.7958 19.9989 17.123 19.9307 17.4268 19.7996C17.7305 19.6686 18.0046 19.4774 18.2325 19.2375L25.7325 10.7675C27.3075 9.12753 30 10.29 30 12.6075V47.3925C30 49.7275 27.275 50.88 25.71 49.2075L18.235 40.785C18.0065 40.5383 17.7296 40.3413 17.4217 40.2063C17.1137 40.0712 16.7813 40.001 16.445 40H7.5C6.12 40 5 38.835 5 37.3975Z" fill="#FAFAFA" stroke="#FAFAFA" stroke-width="2.91667" stroke-linecap="round" stroke-linejoin="round"/>
</svg>
